<?xml version="1.0" encoding="utf-8"?>
<!-- Generator: Adobe Illustrator 21.1.0, SVG Export Plug-In . SVG Version: 6.00 Build 0)  -->
<svg version="1.1"
	 id="svg2" inkscape:version="0.91 r13725" sodipodi:docname="MongoDB-Logo.svg" xmlns:cc="http://creativecommons.org/ns#" xmlns:dc="http://purl.org/dc/elements/1.1/" xmlns:inkscape="http://www.inkscape.org/namespaces/inkscape" xmlns:rdf="http://www.w3.org/1999/02/22-rdf-syntax-ns#" xmlns:sodipodi="http://sodipodi.sourceforge.net/DTD/sodipodi-0.dtd" xmlns:svg="http://www.w3.org/2000/svg"
	 xmlns="http://www.w3.org/2000/svg" xmlns:xlink="http://www.w3.org/1999/xlink" x="0px" y="0px" viewBox="0 0 250 250"
	 style="enable-background:new 0 0 250 250;" xml:space="preserve">
<style type="text/css">
	.st0{clip-path:url(#SVGID_2_);}
	.st1{fill:url(#path30_1_);}
	.st2{clip-path:url(#SVGID_4_);}
	.st3{fill:url(#path46_1_);}
	.st4{clip-path:url(#SVGID_6_);}
	.st5{fill:url(#path62_1_);}
	.st6{fill:#5C5C5C;}
	.st7{fill:#414044;}
</style>
<sodipodi:namedview  bordercolor="#666666" borderopacity="1" gridtolerance="10" guidetolerance="10" id="namedview4" inkscape:current-layer="g10" inkscape:cx="210.82244" inkscape:cy="57.558266" inkscape:pageopacity="0" inkscape:pageshadow="2" inkscape:window-height="1145" inkscape:window-maximized="1" inkscape:window-width="1920" inkscape:window-x="0" inkscape:window-y="0" inkscape:zoom="2.0079853" objecttolerance="10" pagecolor="#ffffff" showgrid="false">
	</sodipodi:namedview>
<g id="g14">
	<g>
		<defs>
			<path id="SVGID_1_" d="M123,132.7l-1.7-0.6c0,0,0.2-8.5-2.9-9.1c-2-2.4,0.3-100.5,7.7-0.3c0,0-2.5,1.3-3,3.4
				C122.7,128.2,123,132.7,123,132.7z"/>
		</defs>
		<use xlink:href="#SVGID_1_"  style="overflow:visible;fill:#2F424E;"/>
		<clipPath id="SVGID_2_">
			<use xlink:href="#SVGID_1_"  style="overflow:visible;"/>
		</clipPath>
		<g id="g16" class="st0">
			<linearGradient id="path30_1_" gradientUnits="userSpaceOnUse" x1="117.7611" y1="105.184" x2="126.1497" y2="105.184">
				<stop  offset="0" style="stop-color:#929669"/>
				<stop  offset="0.2308" style="stop-color:#929669"/>
				<stop  offset="1" style="stop-color:#FDFCF1"/>
			</linearGradient>
			<path id="path30" inkscape:connector-curvature="0" class="st1" d="M123,132.7l-1.7-0.6c0,0,0.2-8.5-2.9-9.1
				c-2-2.4,0.3-100.5,7.7-0.3c0,0-2.5,1.3-3,3.4C122.7,128.2,123,132.7,123,132.7"/>
		</g>
	</g>
</g>
<g id="g32">
	<g>
		<defs>
			<path id="SVGID_3_" d="M123.9,124.4c0,0,14.7-9.7,11.2-29.7c-3.3-14.6-11.1-19.4-12-21.2c-0.9-1.3-1.9-3.6-1.9-3.6l0.6,40.6
				C122,110.5,120.7,122.9,123.9,124.4L123.9,124.4z"/>
		</defs>
		<use xlink:href="#SVGID_3_"  style="overflow:visible;fill:#2F424E;"/>
		<clipPath id="SVGID_4_">
			<use xlink:href="#SVGID_3_"  style="overflow:visible;"/>
		</clipPath>
		<g id="g34" class="st2">
			<linearGradient id="path46_1_" gradientUnits="userSpaceOnUse" x1="121.3366" y1="97.1931" x2="135.6678" y2="97.1931">
				<stop  offset="0" style="stop-color:#45AA3A"/>
				<stop  offset="1" style="stop-color:#3D9439"/>
			</linearGradient>
			<path id="path46" inkscape:connector-curvature="0" class="st3" d="M123.9,124.4c0,0,14.7-9.7,11.2-29.7
				c-3.3-14.6-11.1-19.4-12-21.2c-0.9-1.3-1.9-3.6-1.9-3.6l0.6,40.6C122,110.5,120.7,122.9,123.9,124.4"/>
		</g>
	</g>
</g>
<g id="g48">
	<g>
		<defs>
			<path id="SVGID_5_" d="M120.5,125c0,0-13.8-9.4-13-25.9c0.8-16.6,10.5-24.7,12.4-26.2c1.2-1.3,1.3-1.8,1.4-3.1
				c0.9,1.8,0.7,27.5,0.8,30.5C122.4,112,121.4,122.8,120.5,125z"/>
		</defs>
		<use xlink:href="#SVGID_5_"  style="overflow:visible;fill:#2F424E;"/>
		<clipPath id="SVGID_6_">
			<use xlink:href="#SVGID_5_"  style="overflow:visible;"/>
		</clipPath>
		<g id="g50" class="st4">
			<linearGradient id="path62_1_" gradientUnits="userSpaceOnUse" x1="107.4731" y1="97.377" x2="122.1475" y2="97.377">
				<stop  offset="0" style="stop-color:#41A83B"/>
				<stop  offset="1" style="stop-color:#5EBC44"/>
			</linearGradient>
			<path id="path62" inkscape:connector-curvature="0" class="st5" d="M120.5,125c0,0-13.8-9.4-13-25.9
				c0.8-16.6,10.5-24.7,12.4-26.2c1.2-1.3,1.3-1.8,1.4-3.1c0.9,1.8,0.7,27.5,0.8,30.5C122.4,112,121.4,122.8,120.5,125"/>
		</g>
	</g>
</g>
<path id="path64" inkscape:connector-curvature="0" class="st6" d="M167.2,165.6c1,0.8,2.9,1.1,4.6,1.1c2.2,0,4.4-0.4,6.5-2.3
	c2.2-2,3.7-5,3.7-9.8c0-4.6-1.8-8.4-5.4-10.6c-2-1.3-4.7-1.8-7.7-1.8c-0.9,0-1.8,0-2.3,0.3c-0.1,0.1-0.4,0.5-0.4,0.6
	c-0.1,0.8-0.1,7.1-0.1,10.8c0,3.8,0,9.1,0.1,9.7C166.3,164.2,166.6,165.1,167.2,165.6z M157.9,140.1c0.8,0,3.8,0.1,5.2,0.1
	c2.6,0,4.4-0.1,9.3-0.1c4.1,0,7.5,1.1,10,3.2c3,2.6,4.5,6.1,4.5,10.5c0,6.2-2.8,9.7-5.7,11.8c-2.8,2.1-6.5,3.3-11.7,3.3
	c-2.8,0-7.6-0.1-11.5-0.1h-0.1c-0.2-0.4,0.3-1.8,0.7-1.8c1.1-0.1,1.4-0.2,1.9-0.4c0.8-0.3,1-0.8,1.1-2.3c0.1-2.8,0.1-6.2,0.1-10.1
	c0-2.7,0-8.1,0-9.8c-0.1-1.4-0.7-1.8-1.9-2.1c-0.6-0.1-1.4-0.3-2.6-0.4C157,141.6,157.7,140.4,157.9,140.1"/>
<path id="path66" inkscape:connector-curvature="0" class="st6" d="M199.1,142.4c-0.2,0-0.4,0.5-0.4,0.7c0,1.6-0.1,5.9-0.1,8.9
	c0,0.1,0.1,0.2,0.2,0.2c0.6,0,2.1,0.1,3.3,0.1c1.8,0,2.8-0.2,3.3-0.5c1.5-0.7,2.2-2.3,2.2-4.1c0-4-2.8-5.5-6.9-5.5
	C200.5,142.3,199.7,142.3,199.1,142.4L199.1,142.4z M209.7,160.7c0-4-3-6.3-8.4-6.3c-0.2,0-1.9,0-2.4,0c-0.1,0-0.3,0.1-0.3,0.2
	c0,2.9,0,7.5,0.1,9.3c0.1,0.8,0.6,1.9,1.3,2.2c0.7,0.4,2.4,0.5,3.6,0.5C206.8,166.7,209.7,164.9,209.7,160.7L209.7,160.7z
	 M190.8,140.1c0.4,0,1.6,0.1,4.8,0.1c3,0,5.4-0.1,8.2-0.1c3.6,0,8.5,1.3,8.5,6.6c0,2.6-1.9,4.7-4.3,5.7c-0.1,0-0.1,0.1,0,0.2
	c3.4,0.9,6.4,3,6.4,7c0,3.9-2.5,6.4-6,8c-2.2,1-4.9,1.3-7.6,1.3c-2.1,0-7.7-0.2-10.8-0.2c-0.3-0.1,0.3-1.6,0.6-1.8
	c0.7,0,1.3-0.1,2.1-0.3c1.1-0.3,1.2-0.6,1.4-2.3c0.1-1.4,0.1-6.5,0.1-10.1c0-4.9,0-8.3,0-9.9c0-1.3-0.5-1.7-1.4-1.9
	c-0.7-0.1-1.9-0.3-2.8-0.4C189.8,141.7,190.5,140.3,190.8,140.1"/>
<path id="path68" inkscape:connector-curvature="0" class="st7" d="M25.1,168.8c-0.1-0.1-0.2-0.5-0.1-0.9c0-0.3,0.1-0.5,0.1-0.6
	c0.9-0.1,1.3-0.2,1.8-0.4c0.8-0.2,1.1-0.6,1.2-1.7c0.1-2.5,0.1-7.1,0.1-10.3l0-0.1c0-0.3,0-0.8-0.4-1.2c-0.6-0.4-1.4-0.8-2.5-1.1
	c-0.4-0.1-0.6-0.3-0.6-0.6c0-0.2,0.3-0.5,0.8-0.6c1.3-0.1,4.9-1,6.2-1.6c0.1,0.1,0.2,0.3,0.2,0.7c0,0.1,0,0.3,0,0.5
	c0,0.5-0.1,1-0.1,1.5c0,0.2,0.2,0.3,0.3,0.3c0.1,0,0.2,0,0.2-0.1c2.6-2.1,5-2.8,6.2-2.8c2,0,3.5,0.9,4.7,2.9
	c0.1,0.1,0.2,0.2,0.3,0.2c0.1,0,0.2-0.1,0.3-0.1c2.4-1.8,4.8-2.9,6.4-2.9c3.8,0,6.1,2.8,6.1,7.6c0,1.4,0,3.1,0,4.7
	c0,1.4,0,2.7,0,3.7c0,0.2,0.3,0.8,0.7,1c0.6,0.3,1.4,0.4,2.4,0.6l0,0c0.1,0.3-0.1,1.3-0.2,1.5c-0.3,0-0.6,0-1,0
	c-0.8,0-1.9-0.1-3.1-0.1c-2.5,0-3.8,0-5.1,0.1c-0.1-0.3-0.1-1.3,0-1.5c0.7-0.1,1.1-0.2,1.5-0.4c0.8-0.3,1-0.6,1.1-1.7
	c0-0.8,0.2-7.4-0.1-9c-0.2-1.6-1.5-3.6-4.2-3.6c-1,0-2.6,0.4-4.2,1.6c-0.1,0.1-0.2,0.3-0.2,0.4l0,0c0.2,0.9,0.2,1.8,0.2,3.4
	c0,0.9,0,1.8,0,2.7c0,1.8,0,3.6,0,4.9c0,0.9,0.5,1.1,1,1.3c0.2,0.1,0.4,0.1,0.6,0.1c0.4,0.1,0.7,0.2,1.3,0.3c0.1,0.2,0.1,0.7,0,1.2
	c-0.1,0.2-0.1,0.4-0.2,0.4c-1.4,0-2.8-0.1-4.9-0.1c-0.6,0-1.7,0-2.6,0.1c-0.7,0-1.4,0-1.8,0c-0.1-0.1-0.1-0.4-0.1-0.8
	c0-0.4,0.1-0.7,0.1-0.7c0.2,0,0.4-0.1,0.6-0.1c0.5-0.1,0.9-0.2,1.3-0.3c0.7-0.2,0.9-0.6,1-1.5c0.1-2,0.2-7.9,0-9.4
	c-0.5-2.4-1.8-3.6-4-3.6c-1.3,0-2.9,0.6-4.2,1.6c-0.2,0.2-0.4,0.6-0.4,0.9c0,0.7,0,1.5,0,2.4c0,2.9,0,6.6,0.1,8.2
	c0,0.5,0.2,1.1,1.1,1.3c0.2,0.1,0.5,0.1,1,0.2c0.2,0,0.5,0.1,0.7,0.1c0.1,0.3,0,1.2-0.1,1.5c-0.4,0-0.9,0-1.5-0.1
	c-0.9,0-1.9-0.1-3.2-0.1c-1.4,0-2.5,0-3.3,0.1C26,168.8,25.5,168.8,25.1,168.8L25.1,168.8"/>
<path id="path70" inkscape:connector-curvature="0" class="st7" d="M71,151.7c-0.8,0-1.6,0.2-2.2,0.6c-1.6,1-2.4,2.9-2.4,5.8
	c0,5.4,2.7,9.1,6.5,9.1c1.1,0,2.1-0.3,2.8-1c1.2-1,1.8-2.9,1.8-5.7C77.6,155.3,74.9,151.7,71,151.7L71,151.7L71,151.7z M71.8,169.2
	c-7,0-9.4-5.1-9.4-9.9c0-3.3,1.4-5.9,4.1-7.7c1.9-1.2,4.2-1.9,6.3-1.9c5.3,0,9,3.8,9,9.3c0,3.7-1.5,6.6-4.3,8.5
	C76,168.4,73.7,169.2,71.8,169.2L71.8,169.2"/>
<path id="path72" inkscape:connector-curvature="0" class="st7" d="M143.1,151.7c-0.8,0-1.6,0.2-2.2,0.6c-1.6,1-2.4,2.9-2.4,5.8
	c0,5.4,2.7,9.1,6.5,9.1c1.1,0,2.1-0.3,2.8-1c1.2-1,1.8-2.9,1.8-5.7C149.6,155.3,147,151.7,143.1,151.7L143.1,151.7L143.1,151.7z
	 M143.8,169.2c-7,0-9.4-5.1-9.4-9.9c0-3.3,1.4-5.9,4.1-7.7c1.9-1.2,4.2-1.9,6.3-1.9c5.3,0,9,3.8,9,9.3c0,3.7-1.5,6.6-4.3,8.5
	C148.1,168.4,145.8,169.2,143.8,169.2L143.8,169.2"/>
<path id="path74" inkscape:connector-curvature="0" class="st7" d="M119.8,151.5c-2.1,0-3.5,1.7-3.5,4.3c0,2.6,1.2,5.7,4.6,5.7
	c0.6,0,1.6-0.3,2.1-0.8c0.8-0.7,1.3-2.2,1.3-3.8C124.3,153.6,122.6,151.5,119.8,151.5L119.8,151.5z M119.5,169.6
	c-0.8,0-1.4,0.2-1.7,0.4c-1.7,1.1-2.5,2.2-2.5,3.4c0,1.2,0.5,2.1,1.4,2.9c1.2,1,2.8,1.5,4.9,1.5c4.2,0,6-2.2,6-4.4
	c0-1.5-0.8-2.6-2.4-3.2C124.1,169.9,122,169.6,119.5,169.6L119.5,169.6L119.5,169.6z M119.8,180.2c-2.5,0-4.3-0.5-5.8-1.7
	c-1.5-1.2-2.2-2.9-2.2-4c0-0.3,0.1-1.2,0.8-2.1c0.4-0.5,1.4-1.4,3.8-3c0.1,0,0.1-0.1,0.1-0.2c0-0.1-0.1-0.2-0.1-0.2
	c-1.9-0.7-2.5-1.9-2.7-2.6c0,0,0-0.1,0-0.1c-0.1-0.3-0.1-0.5,0.2-0.7c0.3-0.2,0.7-0.4,1.2-0.7c0.7-0.4,1.4-0.8,1.9-1.2
	c0.1-0.1,0.1-0.2,0.1-0.3c0-0.1-0.1-0.2-0.2-0.2c-2.8-1-4.3-3.1-4.3-6.3c0-2.1,1-3.9,2.6-5.1c1.1-0.9,4-2,5.9-2l0.1,0
	c1.9,0,3,0.4,4.5,1c0.8,0.3,1.6,0.4,2.6,0.4c1.6,0,2.3-0.5,2.9-1.1c0,0.1,0.1,0.3,0.2,0.8c0,0.5-0.1,1.3-0.5,1.9
	c-0.3,0.4-1.1,0.8-1.8,0.8c-0.1,0-0.1,0-0.2,0c-0.7-0.1-1.1-0.2-1.1-0.2l-0.2,0.1c-0.1,0.1,0,0.2,0,0.3c0,0,0,0.1,0,0.1
	c0.1,0.4,0.3,1.5,0.3,1.8c0,3.4-1.3,4.8-2.8,5.9c-1.4,1-3,1.7-4.8,1.8h0c0,0-0.2,0-0.6,0c-0.2,0-0.5,0-0.5,0l0,0
	c-0.3,0.1-1.1,0.5-1.1,1.2c0,0.6,0.4,1.3,2.1,1.5c0.4,0,0.7,0.1,1.1,0.1c2.3,0.2,5.2,0.4,6.6,0.8c1.9,0.7,3,2.4,3,4.4
	c0,3-2.2,5.9-5.8,7.6C123.5,179.8,121.7,180.2,119.8,180.2L119.8,180.2"/>
<path id="path76" inkscape:connector-curvature="0" class="st7" d="M108.4,167.2c-1-0.1-1.8-0.3-2.6-0.7c-0.1-0.1-0.3-0.5-0.3-0.6
	c-0.1-1.4-0.1-5.5-0.1-8.2c0-2.2-0.4-4.1-1.3-5.5c-1.1-1.6-2.7-2.5-4.7-2.5c-1.8,0-4.2,1.2-6.2,2.9c0,0-0.4,0.3-0.3-0.1
	c0-0.4,0.1-1.4,0.1-1.9c0-0.6-0.3-0.8-0.3-0.8c-1.3,0.6-4.9,1.5-6.3,1.6c-1,0.2-1.2,1.1-0.2,1.5v0c0,0,0,0,0,0
	c1.1,0.3,1.8,0.7,2.4,1c0.4,0.3,0.4,0.8,0.4,1.1c0,3.1,0,7.8-0.1,10.3c0,1-0.3,1.4-1.1,1.6l0.1,0c-0.6,0.1-1,0.2-1.7,0.3
	c-0.2,0.2-0.2,1.6,0,1.8c0.5,0,2.8-0.1,4.8-0.1c2.7,0,4.1,0.1,4.8,0.1c0.3-0.3,0.4-1.6,0.2-1.8c-0.8,0-1.3-0.1-1.9-0.3
	c-0.7-0.2-0.9-0.5-1-1.4c-0.1-2.1-0.1-6.7-0.1-9.8c0-0.9,0.2-1.3,0.5-1.5c0.9-0.8,2.5-1.4,3.8-1.4c1.3,0,2.2,0.4,2.8,1
	c0.9,0.7,1.2,1.8,1.3,2.6c0.2,1.7,0.1,5.2,0.1,8.2c0,1.6-0.1,2.1-0.7,2.2c-0.3,0.1-1,0.3-1.9,0.4c-0.3,0.3-0.2,1.6,0,1.8
	c1.2,0,2.6-0.1,4.6-0.1c2.5,0,4.2,0.1,4.8,0.1C108.5,168.7,108.6,167.5,108.4,167.2"/>
<path id="path78" inkscape:connector-curvature="0" class="st6" d="M221,165h0.8c0.6,0,0.9-0.2,0.9-0.8c0-0.6-0.2-0.8-0.9-0.8H221
	V165z M222.7,167.4l-0.9-2H221v2h-0.5v-4.5h1.3c1,0,1.4,0.4,1.4,1.3c0,0.7-0.3,1.1-0.9,1.2l1,2H222.7L222.7,167.4z M221.8,161.9
	c-1.8,0-3.3,1.4-3.3,3.3c0,1.8,1.4,3.2,3.3,3.2c1.8,0,3.2-1.4,3.2-3.2C225,163.3,223.6,161.9,221.8,161.9z M221.8,168.7
	c-2,0-3.6-1.6-3.6-3.6c0-2,1.6-3.6,3.6-3.6c2,0,3.6,1.6,3.6,3.5C225.4,167.2,223.8,168.7,221.8,168.7"/>
</svg>
